<svg xmlns="http://www.w3.org/2000/svg" width="12" height="26" viewBox="0 0 12 26">
  <g id="Group_2" data-name="Group 2" transform="translate(-486 -649)">
    <g id="Union_2" data-name="Union 2" transform="translate(2476 649)" fill="none">
      <path d="M-1990,20a6,6,0,0,1,3-5.2V0h6V14.8a6,6,0,0,1,3,5.2,6,6,0,0,1-6,6A6,6,0,0,1-1990,20Z" stroke="none"/>
      <path d="M -1983.999633789062 25.00010108947754 C -1981.242919921875 25.00010108947754 -1979.000244140625 22.75697135925293 -1979.000244140625 19.99979972839355 C -1979.000244140625 18.22010040283203 -1979.958374023438 16.56044006347656 -1981.500610351562 15.66849040985107 L -1982 15.37969017028809 L -1982 14.80283069610596 L -1982 1.000000596046448 L -1986.000244140625 1.000000596046448 L -1986.000244140625 14.80323028564453 L -1986.000244140625 15.38006019592285 L -1986.49951171875 15.66886043548584 C -1988.041870117188 16.56093978881836 -1989 18.22046089172363 -1989 19.99979972839355 C -1989 22.75697135925293 -1986.7568359375 25.00010108947754 -1983.999633789062 25.00010108947754 M -1983.999633789062 26.00010108947754 C -1987.3134765625 26.00010108947754 -1990 23.31360054016113 -1990 19.99979972839355 C -1990 17.77900123596191 -1988.793579101562 15.84049034118652 -1987.000244140625 14.80323028564453 L -1987.000244140625 5.447387820822769e-07 L -1981 5.447387820822769e-07 L -1981 14.80283069610596 C -1979.20654296875 15.84003067016602 -1978.000244140625 17.77880096435547 -1978.000244140625 19.99979972839355 C -1978.000244140625 23.31360054016113 -1980.685791015625 26.00010108947754 -1983.999633789062 26.00010108947754 Z" stroke="none" fill="#000000"/>
    </g>
    <g id="Ellipse_4" data-name="Ellipse 4" transform="translate(488 665)" fill="#000000" stroke="#000000" stroke-width="1">
      <circle cx="4" cy="4" r="4" stroke="none"/>
      <circle cx="4" cy="4" r="3.5" fill="none"/>
    </g>
    <g id="Rectangle_12" data-name="Rectangle 12" transform="translate(491 655)" fill="none" stroke="#000000" stroke-linecap="round" stroke-linejoin="round" stroke-width="1">
      <rect width="2" height="11" stroke="none"/>
      <rect x="0.5" y="0.5" width="1" height="10" fill="none"/>
    </g>
  </g>
</svg>
